0
SECTION
2
HEADER
9
$INSUNITS
70
4
9
$ACADVER
1
AC1014
9
$HANDSEED
5
FFFF
0
ENDSEC
0
SECTION
2
TABLES
0
TABLE
2
VPORT
5
8
100
AcDbSymbolTable
0
ENDTAB
0
TABLE
2
LTYPE
5
5
100
AcDbSymbolTable
0
LTYPE
5
14
100
AcDbSymbolTableRecord
100
AcDbLinetypeTableRecord
2
BYBLOCK
70
0
0
LTYPE
5
15
100
AcDbSymbolTableRecord
100
AcDbLinetypeTableRecord
2
BYLAYER
70
0
0
LTYPE
5
16
100
AcDbSymbolTableRecord
100
AcDbLinetypeTableRecord
2
DASHED
70
0
3
Dashed __ __ __ __ __ __ __ __ __ __ __ __ __ _
72
65
73
2
40
0.75
49
0.5
74
0
49
-0.25
74
0
0
ENDTAB
0
TABLE
2
LAYER
5
2
100
AcDbSymbolTable
70
2
0
LAYER
5
50
100
AcDbSymbolTableRecord
100
AcDbLayerTableRecord
2
0
70
0
62
7
6
CONTINUOUS
0
ENDTAB
0
TABLE
2
STYLE
5
3
100
AcDbSymbolTable
70
1
0
STYLE
5
11
100
AcDbSymbolTableRecord
100
AcDbTextStyleTableRecord
2
STANDARD
70
0
0
ENDTAB
0
TABLE
2
VIEW
5
6
100
AcDbSymbolTable
70
0
0
ENDTAB
0
TABLE
2
UCS
5
7
100
AcDbSymbolTable
70
0
0
ENDTAB
0
TABLE
2
APPID
5
9
100
AcDbSymbolTable
70
2
0
APPID
5
12
100
AcDbSymbolTableRecord
100
AcDbRegAppTableRecord
2
ACAD
70
0
0
ENDTAB
0
TABLE
2
DIMSTYLE
5
A
100
AcDbSymbolTable
70
1
0
ENDTAB
0
TABLE
2
BLOCK_RECORD
5
1
100
AcDbSymbolTable
70
1
0
BLOCK_RECORD
5
1F
100
AcDbSymbolTableRecord
100
AcDbBlockTableRecord
2
*MODEL_SPACE
0
BLOCK_RECORD
5
1B
100
AcDbSymbolTableRecord
100
AcDbBlockTableRecord
2
*PAPER_SPACE
0
ENDTAB
0
ENDSEC
0
SECTION
2
BLOCKS
0
BLOCK
5
20
100
AcDbEntity
100
AcDbBlockBegin
2
*MODEL_SPACE
0
ENDBLK
5
21
100
AcDbEntity
100
AcDbBlockEnd
0
BLOCK
5
1C
100
AcDbEntity
100
AcDbBlockBegin
2
*PAPER_SPACE
0
ENDBLK
5
1D
100
AcDbEntity
100
AcDbBlockEnd
0
ENDSEC
0
SECTION
2
ENTITIES
0
LWPOLYLINE
5
100
100
AcDbEntity
8
0
100
AcDbPolyline
90
4
70
1
43
0.0
10
135.00000000000145
20
-60.000000000000682
10
128.99999999999847
20
-60.000000000000682
10
128.99999999999849
20
59.999999999999403
10
135.00000000000145
20
59.999999999999396
0
LWPOLYLINE
5
101
100
AcDbEntity
8
0
100
AcDbPolyline
90
4
70
1
43
0.0
10
60.000000000000654
20
-135.00000000000728
10
-59.999999999999361
20
-135.00000000000728
10
-59.999999999999368
20
-128.9999999999898
10
60.000000000000632
20
-128.99999999998994
0
LWPOLYLINE
5
102
100
AcDbEntity
8
0
100
AcDbPolyline
90
4
70
1
43
0.0
10
-135.00000000000156
20
-60.000000000000639
10
-135.00000000000156
20
59.999999999999432
10
-129.00000000000142
20
59.999999999999439
10
-129.00000000000136
20
-60.000000000000632
0
LWPOLYLINE
5
103
100
AcDbEntity
8
0
100
AcDbPolyline
90
16
70
1
43
0.0
10
-85.483452120987678
20
127.38617883488493
10
-78.832446529170269
20
135.09468851288722
10
-58.389905643539272
20
117.45658991526963
10
-64.812068972851179
20
110.01330821984857
10
-60.430634640099925
20
110.01330821984854
42
-0.24268018026853375
10
54.596344699622634
20
113.02224884473247
10
112.3340710965104
20
113.02224884473246
10
112.33407109651051
20
55.998625513174915
42
-0.23543459307329601
10
112.33407109651046
20
-55.998625513174652
10
112.33407109651047
20
-112.97775878466038
10
54.688349842317677
20
-112.97775878466041
42
-0.22930525346560121
10
-54.688349842317336
20
-112.97775878466057
10
-113.66592127409459
20
-112.97775878466055
10
-113.66592127409447
20
-53.243289994063801
42
-0.24021887264877015
10
-109.85371874758918
20
60.720260752126393
10
-109.85371874758914
20
65.029550556856861
42
-0.92303038634402901
0
LWPOLYLINE
5
104
100
AcDbEntity
8
0
100
AcDbPolyline
90
4
70
1
43
0.0
10
154.99999999999994
20
155
10
-154.99999999999997
20
155
10
-154.99999999999997
20
-155
10
154.99999999999994
20
-155
0
LWPOLYLINE
5
105
100
AcDbEntity
8
0
100
AcDbPolyline
90
4
70
1
43
0.0
10
-59.999999999999346
20
134.99999999999272
10
60.000000000000654
20
134.99999999999272
10
60.000000000000647
20
128.99999999995913
10
-59.999999999999353
20
128.9999999999589
0
ENDSEC
0
SECTION
2
OBJECTS
0
DICTIONARY
5
C
100
AcDbDictionary
3
ACAD_GROUP
350
D
3
ACAD_MLINESTYLE
350
17
0
DICTIONARY
5
D
100
AcDbDictionary
0
DICTIONARY
5
1A
330
C
100
AcDbDictionary
0
DICTIONARY
5
17
100
AcDbDictionary
0
ENDSEC
0
EOF
